<?xml version="1.0" encoding="UTF-8"?>
<!-- Generator: Adobe Illustrator 24.3.0, SVG Export Plug-In . SVG Version: 6.00 Build 0)  -->
<svg version="1.1" id="Layer_1" xmlns="http://www.w3.org/2000/svg" xmlns:xlink="http://www.w3.org/1999/xlink" x="0px" y="0px" viewBox="0 0 1006.1 236.5" style="enable-background:new 0 0 1006.1 236.5;" xml:space="preserve">
<style type="text/css">
	.st0{fill:#FF5F00;}
	.st1{fill:#EB001B;}
	.st2{fill:#F79E1B;}
</style>
<path d="M353.3,234.3h-7.5v-85.8h7.5V234.3z M410.3,148.5c6.6-0.1,13.1,0.9,19.3,3c5.4,1.8,10.5,4.7,14.7,8.6  c4,3.8,7.1,8.4,9.1,13.5c4.3,11.5,4.3,24.1,0,35.6c-2.1,5.1-5.2,9.7-9.2,13.5c-4.2,3.9-9.3,6.8-14.7,8.6c-6.2,2.1-12.7,3.1-19.3,3  H379v-85.8L410.3,148.5z M386.5,155.6v71.6h23.8c5.6,0.1,11.2-0.7,16.5-2.5c4.5-1.5,8.6-4,12.1-7.2c3.3-3.2,5.8-7,7.4-11.3  c3.3-9.5,3.3-19.9,0-29.4c-1.6-4.3-4.1-8.1-7.4-11.3c-3.5-3.2-7.6-5.7-12.1-7.2c-5.3-1.7-10.9-2.6-16.5-2.5L386.5,155.6z   M548.5,147.5c3.6,0,7.2,0.4,10.7,1.2c3.3,0.8,6.6,2,9.7,3.5c2.9,1.5,5.7,3.4,8.2,5.5c2.4,2.1,4.5,4.6,6.2,7.4l-6.3,4.2  c-1.5-2.3-3.2-4.3-5.2-6.1c-2-1.8-4.3-3.3-6.7-4.6c-2.5-1.3-5.1-2.3-7.8-2.9c-2.8-0.7-5.8-1-8.7-1c-4.9,0-9.7,0.9-14.2,2.6  c-4.3,1.7-8.2,4.2-11.4,7.4c-3.3,3.3-5.9,7.2-7.6,11.6c-3.7,9.6-3.7,20.3,0,29.9c1.8,4.3,4.4,8.3,7.7,11.6c3.3,3.2,7.2,5.7,11.4,7.4  c4.5,1.8,9.4,2.7,14.2,2.6c2.9,0,5.8-0.3,8.6-1c2.7-0.6,5.3-1.6,7.8-2.9c2.4-1.2,4.7-2.8,6.7-4.6c2-1.8,3.8-3.9,5.2-6.1l6.1,4.5  c-1.8,2.7-3.9,5.2-6.3,7.4c-2.5,2.1-5.2,4-8.1,5.4c-3,1.5-6.2,2.7-9.5,3.5c-9.3,2.1-19.1,1.4-28-2.1c-5.2-2.1-9.9-5.1-13.9-9  c-4-3.9-7.1-8.7-9.2-13.8c-4.5-11.4-4.5-24,0-35.4c2.1-5.2,5.2-9.9,9.2-13.9c4-3.9,8.7-7,13.9-9  C536.6,148.5,542.5,147.4,548.5,147.5L548.5,147.5z M608.6,186.7c1.1-1.8,2.5-3.5,4-4.9c1.5-1.4,3.1-2.5,4.9-3.4  c1.8-0.9,3.7-1.5,5.6-2c1.9-0.4,3.9-0.6,5.9-0.6c3.3,0,6.7,0.5,9.8,1.6c2.9,1,5.5,2.6,7.7,4.6c2.2,2.1,3.8,4.6,4.9,7.4  c1.2,3.1,1.8,6.4,1.7,9.7v35.3h-7V201c0-2.7-0.4-5.3-1.2-7.8c-0.8-2.2-2-4.2-3.6-5.9c-1.6-1.6-3.6-2.9-5.8-3.7  c-2.5-0.9-5.2-1.3-7.8-1.3c-2.6,0-5.2,0.4-7.6,1.4c-2.3,0.9-4.4,2.2-6.1,3.9c-1.8,1.7-3.1,3.8-4.1,6.1c-1,2.5-1.5,5.1-1.5,7.7v32.8  h-7V146h7L608.6,186.7z M699,175.8c3.7,0,7.3,0.7,10.7,2.2c3.2,1.4,6.1,3.5,8.5,6.1c2.5,2.7,4.4,5.9,5.7,9.3  c1.4,3.8,2.2,7.8,2.2,11.9c0,0.5,0,1,0,1.5c0,0.5,0,0.9,0,1.4h-48.5c0.2,3.1,0.9,6.1,2.2,8.9c1.2,2.5,2.8,4.8,4.9,6.6  c2,1.8,4.3,3.2,6.9,4.1c2.7,1,5.5,1.4,8.3,1.4c3.7,0.1,7.4-0.7,10.8-2.2c3.2-1.5,6.1-3.5,8.7-6l3.8,4.9c-1.7,1.7-3.6,3.3-5.6,4.6  c-1.8,1.2-3.8,2.2-5.8,2.9c-1.9,0.7-4,1.2-6,1.5c-2.1,0.3-4.1,0.4-6.2,0.4c-4,0-7.9-0.7-11.6-2.2c-3.5-1.4-6.6-3.5-9.2-6.1  c-2.6-2.7-4.7-6-6-9.5c-1.5-3.9-2.3-8.1-2.2-12.3c0-4.1,0.7-8.2,2.2-12c1.4-3.5,3.4-6.7,6-9.4c2.6-2.6,5.7-4.7,9.1-6.2  c3.6-1.5,7.5-2.2,11.3-2.1L699,175.8z M699,182c-2.8,0-5.5,0.5-8.1,1.5c-2.4,1-4.5,2.4-6.4,4.2c-1.9,1.8-3.4,4-4.5,6.3  c-1.2,2.6-1.9,5.3-2.2,8.1h41.1c-0.2-2.8-0.9-5.6-2-8.2c-1-2.4-2.5-4.5-4.3-6.3c-3.6-3.6-8.6-5.6-13.7-5.6H699z M768.8,175.8  c4.1,0,8.1,0.7,11.9,2.3c3.6,1.5,6.8,3.7,9.3,6.6l-4.5,4.7c-2.2-2.2-4.7-4-7.6-5.2c-2.9-1.3-6.1-1.9-9.3-1.9c-3,0-6,0.6-8.8,1.7  c-2.7,1.1-5.1,2.8-7.1,4.9c-2,2.1-3.6,4.6-4.7,7.4c-2.2,6-2.2,12.6,0,18.6c2.1,5.5,6.3,10,11.8,12.3c2.8,1.2,5.8,1.8,8.8,1.7  c3.3,0,6.5-0.6,9.5-2c2.8-1.3,5.4-3,7.6-5.2l4.4,4.8c-2.6,2.9-5.8,5.2-9.4,6.6c-3.8,1.6-7.8,2.3-11.9,2.3c-4.1,0-8.1-0.7-11.9-2.3  c-7.1-2.9-12.7-8.5-15.4-15.7c-2.9-7.6-2.9-16,0-23.6c2.8-7.1,8.4-12.8,15.4-15.7c3.7-1.6,7.7-2.5,11.8-2.6L768.8,175.8z M813.5,201  h9.4l24.3-24.3h8.8l-27.5,27.2l27.9,30.4h-8.9l-24.7-27h-9.4v27h-7.1v-88.2h7L813.5,201z M437.2,118V81.2c0-13.9-8.8-23.2-23.1-23.3  c-8.3-0.5-16.2,3.5-20.6,10.4c-4.1-6.8-11.5-10.8-19.4-10.4c-6.9-0.3-13.4,3-17.2,8.7v-7.4h-12.8v58.7h12.9V85.4  c0-10.2,5.6-15.6,14.4-15.6c8.7,0,12.8,5.5,12.8,15.5V118h12.9V85.4c0-10.2,5.9-15.6,14.4-15.6c8.5,0,12.9,5.5,12.9,15.5V118  L437.2,118z M628,59.3h-20.9V41.5h-12.8v17.8h-11.9V71h11.9v26.8c0,13.6,5.3,21.7,20.4,21.7c5.6,0,11.2-1.6,16-4.5L627,104  c-3.4,2-7.3,3.2-11.3,3.3c-6.4,0-8.5-3.9-8.5-9.8V71h20.9L628,59.3z M736.9,57.8c-6.3-0.2-12.3,3.1-15.5,8.6v-7.1h-12.6V118h12.8  V85.1c0-9.8,4.2-15.1,12.5-15.1c2.7,0,5.4,0.5,8,1.5l3.9-12C743.1,58.4,740,57.8,736.9,57.8L736.9,57.8z M572.3,64  c-7.2-4.3-15.5-6.4-23.9-6.1c-14.9,0-24.5,7.1-24.5,18.8c0,9.6,7.1,15.5,20.2,17.3l6,0.9c7,1,10.3,2.8,10.3,6.1  c0,4.5-4.7,7.1-13.4,7.1c-7,0.2-13.9-1.9-19.6-6.1l-6,10c7.4,5.2,16.3,7.9,25.4,7.6c16.9,0,26.8-8,26.8-19.1  c0-10.3-7.7-15.7-20.5-17.5l-6-0.9c-5.5-0.7-10-1.8-10-5.8c0-4.3,4.2-6.9,11.2-6.9c6.4,0.1,12.7,1.8,18.3,5L572.3,64z M914.3,57.8  c-6.3-0.2-12.3,3.1-15.5,8.6v-7.2h-12.6V118H899V85.1c0-9.8,4.2-15.1,12.5-15.1c2.7,0,5.4,0.5,8,1.5l3.9-12  C920.5,58.4,917.4,57.8,914.3,57.8L914.3,57.8z M749.8,88.7c0,17.8,12.4,30.8,31.3,30.8c7.7,0.4,15.2-2.1,21.1-7l-6.1-10.3  c-4.5,3.4-9.9,5.2-15.4,5.2c-10.2,0-17.7-7.5-17.7-18.8s7.5-18.7,17.7-18.8c5.5,0.1,10.9,1.9,15.3,5.3l6.1-10.3  c-5.9-4.9-13.4-7.4-21.1-7c-18.9,0-31.3,13-31.3,30.8L749.8,88.7z M869.4,88.7V59.2h-12.7v7.1c-4.4-5.7-11.3-8.9-18.5-8.6  c-16.4,0-29.4,12.9-29.4,30.8s12.9,30.8,29.4,30.8c7.2,0.3,14.1-2.9,18.5-8.6v7.1h12.8L869.4,88.7z M821.9,88.7  c0-10.3,6.7-18.8,17.8-18.8c10.6,0,17.7,8.1,17.7,18.8s-7.1,18.8-17.7,18.8C828.6,107.4,821.9,99,821.9,88.7z M667.9,57.8  c-17.2,0-29.2,12.5-29.2,30.8c0,18.7,12.5,30.8,30.1,30.8c8.8,0.3,17.3-2.6,24.1-8.2l-6.3-9.5c-4.9,3.9-10.9,6.1-17.2,6.1  c-8.2,0-15.7-3.8-17.5-14.4h43.6c0.1-1.6,0.2-3.2,0.2-4.9C695.7,70.3,684.3,57.8,667.9,57.8L667.9,57.8z M667.7,69.2  c8.2,0,13.5,5.1,14.9,14.2H652c1.3-8.5,6.5-14.2,15.6-14.2H667.7z M988,88.6V35.7h-12.8v30.7c-4.4-5.7-11.3-8.9-18.5-8.6  c-16.4,0-29.4,12.9-29.4,30.8s12.9,30.8,29.4,30.8c7.2,0.3,14.1-2.9,18.5-8.6v7.1H988V88.6z M1002.9,112.6c0.5,0,1,0.1,1.5,0.3  c0.4,0.2,0.9,0.5,1.2,0.8c0.3,0.3,0.6,0.7,0.8,1.2c0.4,0.9,0.4,2,0,2.9c-0.2,0.4-0.5,0.8-0.8,1.2c-0.3,0.3-0.8,0.6-1.2,0.8  c-0.5,0.2-1,0.3-1.5,0.3c-1.5,0-2.9-0.9-3.5-2.3c-0.4-0.9-0.4-2,0-2.9c0.4-0.9,1.1-1.6,2-2c0.4-0.2,0.9-0.3,1.4-0.3H1002.9z   M1002.9,119.2c0.4,0,0.8-0.1,1.1-0.2c0.3-0.1,0.6-0.4,0.9-0.6c1.1-1.1,1.1-3,0-4.1c-0.3-0.3-0.6-0.5-0.9-0.6  c-0.4-0.2-0.7-0.2-1.1-0.2c-0.4,0-0.8,0.1-1.2,0.2c-1.5,0.6-2.2,2.3-1.5,3.8c0.1,0.3,0.3,0.6,0.6,0.9c0.3,0.3,0.6,0.5,0.9,0.6  c0.3,0.1,0.7,0.2,1,0.2L1002.9,119.2z M1003.1,114.5c0.4,0,0.7,0.1,1,0.3c0.2,0.2,0.4,0.5,0.4,0.8c0,0.3-0.1,0.5-0.3,0.7  c-0.2,0.2-0.5,0.3-0.8,0.3l1.1,1.3h-0.9l-1.1-1.3h-0.3v1.3h-0.7v-3.5H1003.1z M1002.3,115.2v0.9h0.9c0.2,0,0.3,0,0.5,0  c0.1-0.1,0.2-0.2,0.2-0.3c0-0.1-0.1-0.3-0.2-0.3c-0.2,0-0.3,0-0.5,0L1002.3,115.2z M940.5,88.6c0-10.3,6.7-18.8,17.8-18.8  c10.6,0,17.7,8.1,17.7,18.8s-7.1,18.8-17.7,18.8C947.2,107.4,940.5,98.9,940.5,88.6z M509.3,88.6V59.2h-13v7.1  c-4.4-5.7-11.3-8.9-18.5-8.6c-16.4,0-29.4,12.9-29.4,30.8s12.9,30.8,29.4,30.8c7.2,0.3,14.1-2.9,18.5-8.6v7.1h12.8L509.3,88.6z   M461.8,88.6c0-10.3,6.7-18.8,17.8-18.8c10.6,0,17.7,8.1,17.7,18.8s-7.1,18.8-17.7,18.8c-11.2,0-17.9-8.4-17.9-18.8L461.8,88.6z   M865.3,231.4h-1.1v2.9h-0.5v-2.9h-1.1v-0.5h2.7V231.4z M869.5,234.3h-0.6v-2.8l-1,2.5h-0.6l-1-2.5v2.8h-0.5v-3.4h0.8l1,2.5l1-2.5  h0.8L869.5,234.3z"/>
<g id="_Group_">
	<rect x="104.1" y="18.9" class="st0" width="77.2" height="138.8"/>
	<path id="_Path_" class="st1" d="M109.1,88.3c0-27.1,12.4-52.7,33.7-69.4C104.4-11.2,49-4.6,18.9,33.8   c-30.1,38.3-23.5,93.8,14.9,123.9c32,25.1,77,25.1,109,0C121.5,140.9,109,115.3,109.1,88.3z"/>
	<path class="st2" d="M277,142.9v-2.8h1.2v-0.6h-2.9v0.6h1.2v2.8H277z M282.7,142.9v-3.4h-0.9l-1,2.5l-1-2.5h-0.9v3.4h0.6v-2.6   l1,2.2h0.7l1-2.2v2.6L282.7,142.9z"/>
	<path class="st2" d="M285.5,88.3c0,48.7-39.5,88.2-88.2,88.2c-19.8,0-39-6.6-54.5-18.9c38.3-30.1,45-85.6,14.9-123.9   c-4.3-5.5-9.3-10.5-14.9-14.9c38.3-30.1,93.8-23.5,123.9,14.8C278.9,49.3,285.5,68.5,285.5,88.3z"/>
</g>
</svg>